<?xml version="1.0" encoding="iso-8859-1"?>
<!-- Generator: Adobe Illustrator 21.0.0, SVG Export Plug-In . SVG Version: 6.00 Build 0)  -->
<svg xmlns="http://www.w3.org/2000/svg" xmlns:xlink="http://www.w3.org/1999/xlink" version="1.1" id="Capa_1" x="0px" y="0px" viewBox="0 0 512 512" style="enable-background:new 0 0 512 512;" xml:space="preserve" width="512" height="512">
<g>
	<path style="fill:#FFD844;" d="M406.68,59.25v394.27c0,24.77-20.08,44.86-44.85,44.86H150.88c-24.77,0-44.86-20.09-44.86-44.86   V59.25c0-24.77,20.09-44.86,44.86-44.86h210.95C386.6,14.39,406.68,34.48,406.68,59.25z"/>
	<path style="fill:#FFBF00;" d="M406.68,59.25v394.27c0,24.77-20.08,44.86-44.85,44.86H256V14.39h105.83   C386.6,14.39,406.68,34.48,406.68,59.25z"/>
	<g>
		<path style="fill:#55696E;" d="M366.08,0H145.92C115.64,0,91,24.63,91,54.92v402.16c0,30.28,24.64,54.92,54.92,54.92h220.16    c30.28,0,54.92-24.64,54.92-54.92V54.92C421,24.63,396.36,0,366.08,0z M391,457.08c0,13.74-11.18,24.92-24.92,24.92H145.92    c-13.74,0-24.92-11.18-24.92-24.92V54.92C121,41.18,132.18,30,145.92,30h34.16c0,18.73,15.24,33.96,33.97,33.96h83.9    c18.73,0,33.97-15.23,33.97-33.96h34.16C379.82,30,391,41.18,391,54.92V457.08z"/>
	</g>
	<path style="fill:#55696E;" d="M327.36,446.67c0,8.29-6.71,15-15,15H199.64c-8.29,0-15-6.71-15-15c0-8.28,6.71-15,15-15h112.72   C320.65,431.67,327.36,438.39,327.36,446.67z"/>
	<g>
		<path style="fill:#55696E;" d="M243.943,167.035c0-8.284-6.716-15-15-15s-15,6.716-15,15v13.342c0,8.284,6.716,15,15,15    s15-6.716,15-15V167.035z"/>
		<path style="fill:#323C3C;" d="M298.057,167.035c0-8.284-6.716-15-15-15s-15,6.716-15,15v13.342c0,8.284,6.716,15,15,15    s15-6.716,15-15V167.035z"/>
		<path style="fill:#55696E;" d="M271,210.4v13.35c0,8.28-6.72,15-15,15s-15-6.72-15-15V210.4c0-8.28,6.72-15,15-15    S271,202.12,271,210.4z"/>
		<path style="fill:#55696E;" d="M200.533,195.404c-8.284,0-15,6.716-15,15v13.342c0,8.284,6.716,15,15,15s15-6.716,15-15v-13.342    C215.533,202.12,208.817,195.404,200.533,195.404z"/>
		<path style="fill:#323C3C;" d="M311.467,195.404c-8.284,0-15,6.716-15,15v13.342c0,8.284,6.716,15,15,15s15-6.716,15-15v-13.342    C326.467,202.12,319.751,195.404,311.467,195.404z"/>
	</g>
	<path style="fill:#FFFFFF;" d="M326.92,334.1v46.21c0,11.51-9.37,20.88-20.89,20.88H205.97c-11.52,0-20.89-9.37-20.89-20.88V334.1   c0-11.52,9.37-20.89,20.89-20.89h100.06C317.55,313.21,326.92,322.58,326.92,334.1z"/>
	<path style="fill:#323C3C;" d="M256,238.75V195.4c8.28,0,15,6.72,15,15v13.35C271,232.03,264.28,238.75,256,238.75z"/>
	<path style="fill:#323C3C;" d="M312.36,461.67H256v-30h56.36c8.29,0,15,6.72,15,15C327.36,454.96,320.65,461.67,312.36,461.67z"/>
	<path style="fill:#EEE9E8;" d="M306.03,401.19H256v-87.98h50.03c11.52,0,20.89,9.37,20.89,20.89v46.21   C326.92,391.82,317.55,401.19,306.03,401.19z"/>
	<path style="fill:#323C3C;" d="M421,54.92v402.16c0,30.28-24.64,54.92-54.92,54.92H256v-30h110.08c13.74,0,24.92-11.18,24.92-24.92   V54.92C391,41.18,379.82,30,366.08,30h-34.16c0,18.73-15.24,33.96-33.97,33.96H256V0h110.08C396.36,0,421,24.63,421,54.92z"/>
</g>















</svg>
