<svg height="511pt" viewBox="0 0 511.99995 511" width="511pt" xmlns="http://www.w3.org/2000/svg"><path d="m184.933594 70.457031h-99.882813c-8.332031 0-15.085937 6.757813-15.085937 15.089844v99.886719c0 8.328125 6.753906 15.085937 15.085937 15.085937 8.328125 0 15.085938-6.753906 15.085938-15.085937v-84.800782h84.796875c8.332031 0 15.085937-6.753906 15.085937-15.089843 0-8.332031-6.753906-15.085938-15.085937-15.085938zm0 0" fill="#ff9100"/><path d="m426.949219 312.480469c-8.332031 0-15.085938 6.753906-15.085938 15.085937v84.800782h-84.796875c-8.332031 0-15.085937 6.753906-15.085937 15.089843 0 8.332031 6.753906 15.085938 15.085937 15.085938h99.886719c8.328125 0 15.085937-6.753907 15.085937-15.085938v-99.890625c-.003906-8.332031-6.757812-15.085937-15.089843-15.085937zm0 0" fill="#ff641a"/><path d="m54.28125 351.5 336.125-336.132812c19.820312-19.824219 51.964844-19.824219 71.789062 0l34.9375 34.941406c19.824219 19.820312 19.824219 51.964844 0 71.789062l-336.125 336.132813-151.699218 53.855469c-2.765625.976562-5.476563.136718-7.246094-1.632813-1.785156-1.785156-2.632812-4.5-1.644531-7.257813zm0 0" fill="#ff9100"/><path d="m2.0625 510.453125 477.601562-477.617187 17.46875 17.472656c19.824219 19.820312 19.824219 51.964844 0 71.789062l-336.125 336.132813-151.699218 53.855469c-2.765625.976562-5.476563.140624-7.246094-1.632813zm0 0" fill="#ff641a"/><path d="m54.28125 351.5 286.445312-286.453125 38.589844 38.617187 14.761719 14.761719 14.78125 14.761719 38.59375 38.589844-286.445313 286.453125-53.363281-53.367188-14.78125-14.761719zm0 0" fill="#0050c3"/><path d="m107.644531 404.863281 286.433594-286.4375 14.78125 14.761719 38.59375 38.589844-286.445313 286.453125zm0 0" fill="#1b3b6b"/><path d="m92.863281 390.101562 286.453125-286.4375 14.761719 14.761719 14.78125 14.761719-286.453125 286.4375-14.761719-14.761719zm0 0" fill="#fff261"/><path d="m107.644531 404.863281 286.433594-286.4375 14.78125 14.761719-286.453125 286.4375zm0 0" fill="#ffb64c"/></svg>